<?xml version="1.0" encoding="utf-8"?>
<!-- Generator: Adobe Illustrator 23.0.3, SVG Export Plug-In . SVG Version: 6.00 Build 0)  -->
<svg version="1.1" id="Layer_1" xmlns="http://www.w3.org/2000/svg" xmlns:xlink="http://www.w3.org/1999/xlink" x="0px" y="0px"
	 viewBox="0 0 39.2 38.7" style="enable-background:new 0 0 39.2 38.7;" xml:space="preserve">
<style type="text/css">
	.st0{fill:#3B97D2;}
	.st1{fill:#3B97D3;}
</style>
<title>cern</title>
<path class="st0" d="M39.2,0.1c0,0-18.6-0.1-24.5-0.1c-0.9,0-1.5,0.1-1.8,0.1C5.6,0.7,0,6.7,0,14c0.1,2.5,0.6,5,1.4,7.4
	c1.2,4.1,2.5,8.8,2.5,8.8h0.7l-2.8-9.3l0,0c2.4,4.3,7,7,12,7c2.7,0,5.3-0.8,7.6-2.3l0,0l-12.2,13h1l11.5-12.2c1.4-1.4,2.7-3,3.8-4.7
	c1.5-2.2,2.3-4.8,2.2-7.4l0,0l5.4,24.3H34c0,0-4.5-19.9-5.4-24.1s-1.9-6.6-3-8.1c-0.4-0.2-0.8-0.4-1.2-0.5
	c4.4,5.8,3.2,14.1-2.6,18.4S7.8,27.7,3.4,21.9S0.2,7.8,6,3.4c2.3-1.7,5.1-2.7,8-2.6c3.1,0,6.2,1.1,8.5,3.1C23,4,23.5,4.1,24,4.3l0,0
	c-1.7-1.7-3.7-2.9-6-3.5l0,0l21.2,0.1V0.1z"/>
<path class="st0" d="M35.2,3.5l-1.3,13.2l0,0c-0.3-2.7-1.3-5.2-3-7.3c-4.9-6-13.7-7-19.7-2.1c-0.6,0.5-1.2,1-1.7,1.6l0.6,0.5
	c4.8-5.5,13.1-6,18.6-1.2c0.9,0.8,1.7,1.7,2.3,2.6c1.8,2.9,2.6,6.3,2.2,9.7c-0.3,1.7-0.9,3.4-1.8,4.9l0.2,1c1.6-2.4,2.4-4.6,3-10.1
	c0.5-4.2,1.3-12.7,1.3-12.7L35.2,3.5z"/>
<path class="st1" d="M7.9,11.9l-0.4,0.5c-0.4-0.4-1-0.7-1.6-0.7c-1.2,0-2.2,1-2.2,2.2c0,1.2,1,2.2,2.2,2.2c0,0,0,0,0,0
	c0.6,0,1.2-0.2,1.6-0.7L8,15.8c-0.6,0.5-1.3,0.8-2.1,0.9c-1.6,0-2.8-1.3-2.8-2.8c0-1.6,1.3-2.8,2.8-2.8l0,0
	C6.7,11.1,7.4,11.4,7.9,11.9z"/>
<path class="st1" d="M9.7,11.7v1.8h2.8v0.6H9.7v1.9H13v0.6H9.1v-5.6h3.8v0.6L9.7,11.7z"/>
<path class="st1" d="M16.8,14.9h-0.4h-1.5v1.8h-0.6v-5.6h2.1c1.4,0,2.2,0.7,2.2,1.9c0.1,0.8-0.5,1.6-1.2,1.8l1.3,1.9h-0.7L16.8,14.9
	z M16.4,14.3c1,0,1.6-0.5,1.6-1.3s-0.6-1.3-1.6-1.3h-1.5v2.6L16.4,14.3z"/>
<path class="st1" d="M24,16.7l-3.3-4.5v4.5H20v-5.6h0.7l3.3,4.5v-4.5h0.6v5.6H24z"/>
</svg>
